<svg width="18" height="16" viewBox="0 0 18 16" fill="none" xmlns="http://www.w3.org/2000/svg">
<path d="M-3.15722e-07 8.00003C-2.94063e-07 8.49553 0.343038 8.8481 0.838539 8.8481L13.388 8.8481L15.4272 8.77187L12.2922 11.6305L10.1578 13.8031C10.0053 13.946 9.92906 14.1747 9.92906 14.4034C9.92906 14.8799 10.2912 15.2229 10.7581 15.2229C10.9868 15.2229 11.1869 15.1371 11.3774 14.9561L17.7141 8.63846C17.9047 8.45742 18 8.23825 18 8.00003C18 7.76181 17.9047 7.54265 17.7141 7.3616L11.3774 1.03444C11.1869 0.853392 10.9868 0.777161 10.7581 0.777161C10.2912 0.777161 9.92906 1.1202 9.92906 1.59664C9.92906 1.82533 10.0053 2.0445 10.1578 2.19696L12.2922 4.36954L15.4177 7.21866L13.388 7.15196L0.838539 7.15196C0.343038 7.15196 -3.37381e-07 7.50453 -3.15722e-07 8.00003Z" fill="#4F5CD6"/>
</svg>
