<svg width="15" height="18" viewBox="0 0 15 18" fill="none" xmlns="http://www.w3.org/2000/svg">
<path d="M7.22293 18C7.71843 18 8.071 17.657 8.071 17.1615L8.071 4.61196L7.99477 2.57279L10.8534 5.70778L13.026 7.84224C13.1689 7.99471 13.3976 8.07094 13.6263 8.07094C14.1028 8.07094 14.4458 7.70884 14.4458 7.24193C14.4458 7.01323 14.36 6.81313 14.179 6.62255L7.86136 0.285866C7.68031 0.0952893 7.46115 6.10617e-07 7.22293 6.31443e-07C6.98471 6.52269e-07 6.76555 0.0952894 6.5845 0.285866L0.25734 6.62255C0.0762922 6.81313 6.10283e-05 7.01324 6.10483e-05 7.24193C6.10891e-05 7.70884 0.343099 8.07094 0.819542 8.07094C1.04823 8.07094 1.2674 7.99471 1.41986 7.84225L3.59244 5.70778L6.44156 2.58232L6.37486 4.61196L6.37486 17.1615C6.37486 17.657 6.72743 18 7.22293 18Z" fill="#4F5CD6"/>
</svg>
