<svg width="16" height="18" viewBox="0 0 16 18" fill="none" xmlns="http://www.w3.org/2000/svg">
<path d="M7.99997 0C7.50447 0 7.1519 0.343039 7.1519 0.838539L7.1519 13.388L7.22813 15.4272L4.36948 12.2922L2.1969 10.1578C2.05397 10.0053 1.82527 9.92906 1.59658 9.92906C1.12014 9.92906 0.7771 10.2912 0.7771 10.7581C0.7771 10.9868 0.862859 11.1869 1.04391 11.3774L7.36154 17.7141C7.54258 17.9047 7.76175 18 7.99997 18C8.23819 18 8.45735 17.9047 8.6384 17.7141L14.9656 11.3774C15.1466 11.1869 15.2228 10.9868 15.2228 10.7581C15.2228 10.2912 14.8798 9.92906 14.4034 9.92906C14.1747 9.92906 13.9555 10.0053 13.803 10.1578L11.6305 12.2922L8.78133 15.4177L8.84804 13.388L8.84804 0.838539C8.84804 0.343039 8.49547 0 7.99997 0Z" fill="#4F5CD6"/>
</svg>
