<svg width="16" height="19" viewBox="0 0 16 19" fill="none" xmlns="http://www.w3.org/2000/svg">
<path d="M7.99997 0.7771C7.50447 0.7771 7.1519 1.12014 7.1519 1.61564L7.1519 14.1651L7.22813 16.2043L4.36948 13.0693L2.1969 10.9349C2.05397 10.7824 1.82527 10.7062 1.59658 10.7062C1.12014 10.7062 0.7771 11.0683 0.7771 11.5352C0.7771 11.7639 0.862859 11.964 1.04391 12.1545L7.36154 18.4912C7.54258 18.6818 7.76175 18.7771 7.99997 18.7771C8.23819 18.7771 8.45735 18.6818 8.6384 18.4912L14.9656 12.1545C15.1466 11.964 15.2228 11.7639 15.2228 11.5352C15.2228 11.0683 14.8798 10.7062 14.4034 10.7062C14.1747 10.7062 13.9555 10.7824 13.803 10.9349L11.6305 13.0693L8.78133 16.1948L8.84804 14.1651L8.84804 1.61564C8.84804 1.12014 8.49547 0.7771 7.99997 0.7771Z" fill="white"/>
</svg>
