<svg width="24" height="19" viewBox="0 0 24 19" fill="none" xmlns="http://www.w3.org/2000/svg">
<path d="M0.98828 9.49219C0.98828 9.97266 1.19922 10.4766 1.52734 10.793L9.13281 18.3984C9.50781 18.7734 9.95312 18.9609 10.375 18.9609C11.418 18.9609 12.1094 18.2461 12.1094 17.2969C12.1094 16.7578 11.8867 16.3477 11.5586 16.0313L8.88672 13.3594L6.47266 11.1211L8.99219 11.2617L22.0937 11.2617C23.1953 11.2617 23.9336 10.5469 23.9336 9.49219C23.9336 8.4375 23.1953 7.73438 22.0937 7.73438L8.99219 7.73438L6.46094 7.86328L8.88672 5.63672L11.5586 2.97656C11.875 2.64844 12.1094 2.23828 12.1094 1.71094C12.1094 0.76172 11.418 0.0351573 10.375 0.0351574C9.95312 0.0351575 9.51953 0.222658 9.14453 0.585939L1.52734 8.20313C1.19922 8.51953 0.98828 9.02344 0.98828 9.49219Z" fill="#4F5CD6"/>
</svg>
