<svg width="763" height="764" viewBox="0 0 763 764" fill="none" xmlns="http://www.w3.org/2000/svg">
<g filter="url(#filter0_f)">
<path fill-rule="evenodd" clip-rule="evenodd" d="M393.967 200.438C308.521 198.754 228.617 252.604 204.952 334.607C183.242 409.838 236.155 479.658 300.465 524.443C360.222 566.059 438.025 580.24 497.659 538.449C560.139 494.663 583.687 414.511 561.33 341.632C537.681 264.541 474.693 202.03 393.967 200.438Z" fill="url(#paint0_linear)"/>
</g>
<g filter="url(#filter1_f)">
<path fill-rule="evenodd" clip-rule="evenodd" d="M376.671 170.332C421.55 167.237 470.633 180.976 486.835 223.005C503.241 265.561 476.681 309.312 441.343 338.088C405.232 367.492 356.275 386.441 317.165 361.165C277.468 335.51 270.746 282.092 284.827 236.935C297.284 196.987 334.979 173.207 376.671 170.332Z" fill="url(#paint1_linear)"/>
</g>
<defs>
<filter id="filter0_f" x="-1.52588e-05" y="0.399887" width="769.6" height="763.2" filterUnits="userSpaceOnUse" color-interpolation-filters="sRGB">
<feFlood flood-opacity="0" result="BackgroundImageFix"/>
<feBlend mode="normal" in="SourceGraphic" in2="BackgroundImageFix" result="shape"/>
<feGaussianBlur stdDeviation="100" result="effect1_foregroundBlur"/>
</filter>
<filter id="filter1_f" x="178.092" y="69.9138" width="413.712" height="403.041" filterUnits="userSpaceOnUse" color-interpolation-filters="sRGB">
<feFlood flood-opacity="0" result="BackgroundImageFix"/>
<feBlend mode="normal" in="SourceGraphic" in2="BackgroundImageFix" result="shape"/>
<feGaussianBlur stdDeviation="50" result="effect1_foregroundBlur"/>
</filter>
<linearGradient id="paint0_linear" x1="384.8" y1="200.4" x2="384.8" y2="563.6" gradientUnits="userSpaceOnUse">
<stop stop-color="#F56B7A"/>
<stop offset="1" stop-color="#7092F3" stop-opacity="0.46"/>
</linearGradient>
<linearGradient id="paint1_linear" x1="380.284" y1="170.12" x2="390.116" y2="371.48" gradientUnits="userSpaceOnUse">
<stop stop-color="#F56B7A"/>
<stop offset="1" stop-color="#7092F3"/>
</linearGradient>
</defs>
</svg>
