<svg width="205" height="20" viewBox="0 0 205 20" fill="none" xmlns="http://www.w3.org/2000/svg">
<path d="M12.3537 6.5H17.5426C17.1456 2.70526 13.7017 0 9.23295 0C4.13636 0 0 3.50852 0 9.75C0 15.733 3.74858 19.4261 9.26989 19.4261C14.2188 19.4261 17.7642 16.3977 17.7642 11.2273V8.60511H9.38068V12.2614H12.8153C12.7692 13.9048 11.6058 14.9574 9.30682 14.9574C6.64773 14.9574 5.28125 13 5.28125 9.67614C5.28125 6.39844 6.75852 4.46875 9.34375 4.46875C10.9503 4.46875 12.0398 5.20739 12.3537 6.5Z" fill="#1D1D1F"/>
<path d="M23.373 19.1676L24.4625 15.5483H30.704L31.7934 19.1676H37.3332L31.0917 0.258523H24.0747L17.8332 19.1676H23.373ZM25.6258 11.7074L27.5094 5.46591H27.6571L29.5406 11.7074H25.6258Z" fill="#1D1D1F"/>
<path d="M38.0416 19.1676H46.9422C51.0509 19.1676 53.5899 16.924 53.5899 13.8125C53.5899 11.1442 51.6233 9.39915 49.195 9.30682V9.12216C51.3832 8.68821 52.8513 7.07244 52.8513 4.9858C52.8513 2.10511 50.5615 0.258523 46.2405 0.258523H38.0416V19.1676ZM43.1751 15.0682V11.0795H45.6496C47.2099 11.0795 48.1609 11.8182 48.1609 13.1477C48.1609 14.4126 47.3023 15.0682 45.5757 15.0682H43.1751ZM43.1751 7.90341V4.28409H45.3541C46.6283 4.28409 47.57 4.9304 47.57 6.09375C47.57 7.2571 46.6283 7.90341 45.2803 7.90341H43.1751Z" fill="#1D1D1F"/>
<path d="M54.296 19.1676H59.4295V12.9261H61.2023L64.5261 19.1676H70.1028L66.2619 12.1136C68.2747 11.1442 69.475 9.30682 69.475 6.68466C69.475 2.65909 66.6589 0.258523 62.4579 0.258523H54.296V19.1676ZM59.4295 8.9375V4.35795H61.2392C63.0396 4.35795 64.1199 5.05966 64.1199 6.68466C64.1199 8.30043 63.0396 8.9375 61.2392 8.9375H59.4295Z" fill="#1D1D1F"/>
<path d="M75.6839 0.258523H70.5504V19.1676H75.6839V0.258523Z" fill="#1D1D1F"/>
<path d="M77.004 19.1676H90.5949V15.0313H82.1375V11.7813H89.9301V7.64489H82.1375V4.39489H90.6318V0.258523H77.004V19.1676Z" fill="#1D1D1F"/>
<path d="M92.065 19.1676H104.843V15.0313H97.1986V0.258523H92.065V19.1676Z" fill="#1D1D1F"/>
<path d="M109.873 0.258523V19.1676H114.895V8.16193H115.043L119.253 19.0199H122.282L126.492 8.2358H126.64V19.1676H131.662V0.258523H125.273L120.878 10.9688H120.657L116.262 0.258523H109.873Z" fill="#1D1D1F"/>
<path d="M137.894 19.1676L138.984 15.5483H145.225L146.315 19.1676H151.855L145.613 0.258523H138.596L132.355 19.1676H137.894ZM140.147 11.7074L142.031 5.46591H142.179L144.062 11.7074H140.147Z" fill="#1D1D1F"/>
<path d="M152.637 19.1676H168.074V15.0313H159.174L168.111 3.10227V0.258523H152.674V4.39489H161.574L152.637 16.3239V19.1676Z" fill="#1D1D1F"/>
<path d="M186.932 9.71307C186.932 3.39773 182.87 0 177.736 0C172.566 0 168.54 3.39773 168.54 9.71307C168.54 15.9915 172.566 19.4261 177.736 19.4261C182.87 19.4261 186.932 16.0284 186.932 9.71307ZM181.651 9.71307C181.651 13.1108 180.285 14.9574 177.736 14.9574C175.188 14.9574 173.822 13.1108 173.822 9.71307C173.822 6.31534 175.188 4.46875 177.736 4.46875C180.285 4.46875 181.651 6.31534 181.651 9.71307Z" fill="#1D1D1F"/>
<path d="M188.195 19.1676H193.328V12.9261H195.101L198.425 19.1676H204.002L200.161 12.1136C202.174 11.1442 203.374 9.30682 203.374 6.68466C203.374 2.65909 200.558 0.258523 196.357 0.258523H188.195V19.1676ZM193.328 8.9375V4.35795H195.138C196.938 4.35795 198.019 5.05966 198.019 6.68466C198.019 8.30043 196.938 8.9375 195.138 8.9375H193.328Z" fill="#1D1D1F"/>
</svg>
