<svg width="25" height="24" viewBox="0 0 25 24" fill="none" xmlns="http://www.w3.org/2000/svg">
<path d="M22.6 0H1.4C0.6 0 0 0.6 0 1.4V22.8C0 23.4 0.6 24 1.4 24H22.8C23.6 24 24.2 23.4 24.2 22.6V1.4C24 0.6 23.4 0 22.6 0ZM7.2 20.4H3.6V9H7.2V20.4ZM5.4 7.4C4.2 7.4 3.4 6.4 3.4 5.4C3.4 4.4 4.4 3.4 5.4 3.4C6.6 3.4 7.4 4.4 7.4 5.4C7.4 6.4 6.4 7.4 5.4 7.4ZM20.4 20.4H16.8V14.8C16.8 13.4 16.8 11.8 15 11.8C13.2 11.8 12.8 13.2 12.8 14.8V20.4H9.4V9H12.8V10.6C13.2 9.6 14.4 8.8 16.2 8.8C19.8 8.8 20.4 11.2 20.4 14.2V20.4Z" fill="#4F5CD6"/>
</svg>
