<svg width="6" height="16" viewBox="0 0 6 16" fill="none" xmlns="http://www.w3.org/2000/svg">
<path d="M2.93333 16C3.2 16 3.73333 14.8 3.73333 12.8V5.73333C4.93333 5.33333 5.86667 4.26667 5.86667 2.93333C5.86667 1.33333 4.53333 0 2.93333 0C1.33333 0 0 1.33333 0 2.93333C0 4.26667 0.933333 5.46667 2.13333 5.73333V12.6667C2.13333 14.8 2.66667 16 2.93333 16ZM2.13333 3.06667C1.6 3.06667 1.06667 2.66667 1.06667 2.13333C1.06667 1.6 1.46667 1.2 2 1.2C2.53333 1.2 3.06667 1.6 3.06667 2.13333C3.06667 2.66667 2.66667 3.06667 2.13333 3.06667Z" fill="#4F5CD6"/>
</svg>
