<svg width="16" height="13" viewBox="0 0 16 13" fill="none" xmlns="http://www.w3.org/2000/svg">
<path d="M2.4 12.5333H13.8667C15.2 12.5333 16 11.7333 16 10.2667V2.26667C16 0.8 15.2 0 13.6 0H2.13333C0.8 0 0 0.8 0 2.26667V10.1333C0 11.7333 0.8 12.5333 2.4 12.5333ZM7.2 6.53333L2 1.33333C2.13333 1.33333 2.26667 1.33333 2.4 1.33333H13.7333C13.8667 1.33333 14 1.33333 14.1333 1.33333L8.8 6.53333C8.53333 6.8 8.26667 6.93333 8 6.93333C7.73333 6.93333 7.46667 6.8 7.2 6.53333ZM1.33333 2.4L5.2 6.26667L1.33333 10V2.4ZM10.8 6.26667L14.6667 2.4V10L10.8 6.26667ZM2.4 11.2C2.26667 11.2 2.13333 11.2 2 11.2L6.13333 7.2L6.53333 7.6C6.93333 8 7.46667 8.13333 8 8.13333C8.53333 8.13333 9.06667 7.86667 9.6 7.46667L10 7.06667L14.1333 11.0667C14 11.0667 13.8667 11.0667 13.7333 11.0667H2.4V11.2Z" fill="#4F5CD6"/>
</svg>
