<?xml version="1.0" encoding="utf-8"?>
<!-- Generator: Adobe Illustrator 25.4.1, SVG Export Plug-In . SVG Version: 6.00 Build 0)  -->
<svg version="1.1" id="Layer_1" xmlns="http://www.w3.org/2000/svg" xmlns:xlink="http://www.w3.org/1999/xlink" x="0px" y="0px"
	 viewBox="0 0 12 12" style="enable-background:new 0 0 12 12;" xml:space="preserve">
<style type="text/css">
	.st0{fill:#4F5CD6;}
</style>
<path class="st0" d="M6,12c3.3,0,6-2.7,6-6S9.3,0,6,0C2.7,0,0,2.7,0,6S2.7,12,6,12z M4.5,4.8c0-0.2-0.1-0.4-0.3-0.6
	C4.7,3,5.5,1.9,6.5,1c0.1,0,0.1,0,0.2,0C6,2.2,5.5,3.6,5.4,5.1C5.1,5,4.8,4.9,4.5,4.8z M1.8,3.2C2.6,2,3.9,1.2,5.3,1
	C4.5,1.9,3.9,2.9,3.4,4C3.3,4,3.1,4,3,4.1C2.6,3.9,2.2,3.5,1.8,3.2z M7.9,3.2c0-0.6,0.1-1.2,0.2-1.8c1.1,0.5,2,1.4,2.5,2.4
	c-0.6,0.4-1.2,0.8-1.9,1C8.5,4.6,8.3,4.5,8,4.5C7.9,4.1,7.9,3.6,7.9,3.2z M7.1,3.2c0,0.5,0.1,1.1,0.2,1.6C7.2,4.9,7.1,5,7.1,5.1
	c-0.2,0-0.3,0-0.4,0c-0.1,0-0.3,0-0.4,0c0.1-1.2,0.4-2.4,1-3.5C7.1,2.1,7.1,2.7,7.1,3.2z M0.9,6c0-0.7,0.2-1.5,0.5-2.1
	c0.4,0.3,0.7,0.6,1.2,0.9c0,0,0,0.1,0,0.1c0,0.3,0.2,0.6,0.4,0.8C2.8,6.3,2.8,6.8,2.8,7.4C2.1,7.1,1.5,6.7,1,6.2
	C0.9,6.2,0.9,6.1,0.9,6z M11.1,6c0,0.5-0.1,0.9-0.2,1.3c-0.3,0.2-0.7,0.3-1,0.5c-0.5-0.5-1-1-1.3-1.7C8.8,6,8.9,5.8,8.9,5.6
	c0.7-0.2,1.4-0.6,2-1C11,5.1,11.1,5.5,11.1,6z M3.6,7.8c0-0.6,0-1.3,0.2-1.9c0.2,0,0.4-0.1,0.5-0.3C4.6,5.7,5,5.8,5.4,5.9
	c0,0.7,0.1,1.4,0.2,2.1C5.5,8,5.4,8.1,5.4,8.3C4.8,8.2,4.2,8,3.6,7.8z M6.6,6c0.2,0,0.4,0,0.6,0c0.1,0.2,0.4,0.4,0.7,0.4
	C8.1,7,8.5,7.5,9,8.1C8.4,8.2,7.8,8.3,7.1,8.4C7,8,6.7,7.8,6.4,7.8C6.3,7.2,6.2,6.6,6.2,5.9C6.3,6,6.5,6,6.6,6z M1.1,7.4
	c0.5,0.4,1.1,0.7,1.6,0.9c0,0.6,0.1,1.2,0.3,1.8C2.2,9.4,1.5,8.5,1.1,7.4z M6,11.1c-0.7,0-1.3-0.1-1.9-0.4c-0.2-0.7-0.4-1.3-0.5-2
	C4.2,8.8,4.8,9,5.3,9c0.1,0.4,0.5,0.6,0.9,0.6c0.2,0.5,0.4,0.9,0.7,1.3C6.6,11,6.3,11.1,6,11.1z M6.9,9.4C7,9.3,7,9.2,7.1,9.1
	C8,9.1,8.9,9,9.7,8.7C9.8,8.8,10,8.9,10.1,9c-0.6,0.8-1.4,1.5-2.4,1.8C7.4,10.3,7.1,9.9,6.9,9.4z"/>
</svg>
